<svg width="77" height="70" viewBox="0 0 77 70" fill="none" xmlns="http://www.w3.org/2000/svg">
<path d="M71.4499 0.0441895H5.55011C2.79294 0.0441895 0.549805 2.31983 0.549805 5.11696V47.2358C0.549805 50.033 2.79294 52.3086 5.55011 52.3086H28.8903V58.9842H19.4109C16.1776 58.9842 13.5473 61.6526 13.5473 64.9327V68.634C13.5473 69.364 14.1308 69.9559 14.8504 69.9559H62.1497C62.8692 69.9559 63.4527 69.364 63.4527 68.634V64.9327C63.4527 61.6526 60.8224 58.9842 57.5891 58.9842H48.1097V52.3086H71.4499C74.2071 52.3086 76.4502 50.033 76.4502 47.2358V5.11696C76.4502 2.31983 74.2071 0.0441895 71.4499 0.0441895ZM5.55011 2.68798H71.4499C72.7702 2.68798 73.8442 3.77755 73.8442 5.11696V41.3369H3.15583V5.11696C3.15583 3.77755 4.22983 2.68798 5.55011 2.68798ZM60.8466 64.9327V67.3121H16.1534V64.9327C16.1534 63.1105 17.6147 61.628 19.4109 61.628H30.1933H46.8067H57.5891C59.3853 61.628 60.8466 63.1105 60.8466 64.9327ZM45.5037 58.9842H31.4963V52.3086H45.5037V58.9842ZM71.4499 49.6648H46.8067H30.1933H5.55011C4.22983 49.6648 3.15583 48.5751 3.15583 47.2358V43.9807H73.8442V47.2358C73.8442 48.5751 72.7702 49.6648 71.4499 49.6648Z" fill="#000824"/>
</svg>
