<svg width="96" height="71" viewBox="0 0 96 71" fill="none" xmlns="http://www.w3.org/2000/svg">
<path d="M63.3746 62.066H27.9848C27.1695 62.066 26.5136 61.403 26.5136 60.5788C26.5136 59.7546 27.1695 59.0915 27.9848 59.0915H61.9033V14.0219H3.86243V59.0915H11.2984C12.1137 59.0915 12.7696 59.7546 12.7696 60.5788C12.7696 61.403 12.1137 62.066 11.2984 62.066H2.39117C1.57586 62.066 0.919922 61.403 0.919922 60.5788V12.5346C0.919922 11.7104 1.57586 11.0474 2.39117 11.0474H63.3746C64.1899 11.0474 64.8458 11.7104 64.8458 12.5346V60.5788C64.8458 61.403 64.1838 62.066 63.3746 62.066Z" fill="#000824"/>
<path d="M93.6088 62.066H87.1108C86.2955 62.066 85.6395 61.4029 85.6395 60.5788C85.6395 59.7546 86.2955 59.0915 87.1108 59.0915H92.1376V44.5599L80.2633 23.9864H64.8458V59.0853H70.4243C71.2396 59.0853 71.8956 59.7484 71.8956 60.5726C71.8956 61.3967 71.2396 62.0598 70.4243 62.0598H63.3746C62.5593 62.0598 61.9033 61.3967 61.9033 60.5726V22.5053C61.9033 21.6811 62.5593 21.0181 63.3746 21.0181H81.1093C81.6304 21.0181 82.1146 21.2969 82.3782 21.7555L94.8778 43.4135C95.0065 43.6428 95.0801 43.8968 95.0801 44.1633V60.5788C95.0801 61.4029 94.4241 62.066 93.6088 62.066Z" fill="#000824"/>
<path d="M93.6087 45.6505H70.2955C69.4802 45.6505 68.8242 44.9874 68.8242 44.1633V29.1545C68.8242 28.3303 69.4802 27.6672 70.2955 27.6672H84.9467C85.762 27.6672 86.4179 28.3303 86.4179 29.1545C86.4179 29.9787 85.762 30.6417 84.9467 30.6417H71.7667V42.676H93.6087C94.424 42.676 95.0799 43.3391 95.0799 44.1633C95.0799 44.9874 94.424 45.6505 93.6087 45.6505Z" fill="#000824"/>
<path d="M78.7676 70.5C73.3546 70.5 68.9531 66.0507 68.9531 60.5789C68.9531 55.1071 73.3546 50.6577 78.7676 50.6577C84.1806 50.6577 88.5821 55.1071 88.5821 60.5789C88.5821 66.0507 84.1806 70.5 78.7676 70.5ZM78.7676 53.6322C74.9791 53.6322 71.8956 56.7492 71.8956 60.5789C71.8956 64.4085 74.9791 67.5255 78.7676 67.5255C82.5561 67.5255 85.6396 64.4085 85.6396 60.5789C85.6396 56.7492 82.5561 53.6322 78.7676 53.6322Z" fill="#000824"/>
<path d="M78.7682 64.9042C76.408 64.9042 74.4893 62.9646 74.4893 60.5788C74.4893 58.193 76.408 56.2534 78.7682 56.2534C81.1283 56.2534 83.047 58.193 83.047 60.5788C83.047 62.9646 81.1283 64.9042 78.7682 64.9042ZM78.7682 59.2279C78.0325 59.2279 77.4318 59.8352 77.4318 60.5788C77.4318 61.3224 78.0325 61.9297 78.7682 61.9297C79.5038 61.9297 80.1045 61.3224 80.1045 60.5788C80.1045 59.8352 79.5038 59.2279 78.7682 59.2279Z" fill="#000824"/>
<path d="M19.6416 70.5C14.2286 70.5 9.82715 66.0507 9.82715 60.5789C9.82715 55.1071 14.2286 50.6577 19.6416 50.6577C25.0546 50.6577 29.4561 55.1071 29.4561 60.5789C29.4561 66.0507 25.0546 70.5 19.6416 70.5ZM19.6416 53.6322C15.8532 53.6322 12.7697 56.7492 12.7697 60.5789C12.7697 64.4085 15.8532 67.5255 19.6416 67.5255C23.4301 67.5255 26.5136 64.4085 26.5136 60.5789C26.5136 56.7492 23.4301 53.6322 19.6416 53.6322Z" fill="#000824"/>
<path d="M19.6412 64.9042C17.2811 64.9042 15.3623 62.9646 15.3623 60.5788C15.3623 58.193 17.2811 56.2534 19.6412 56.2534C22.0013 56.2534 23.9201 58.193 23.9201 60.5788C23.9201 62.9646 22.0013 64.9042 19.6412 64.9042ZM19.6412 59.2279C18.9056 59.2279 18.3048 59.8352 18.3048 60.5788C18.3048 61.3224 18.9056 61.9297 19.6412 61.9297C20.3768 61.9297 20.9776 61.3224 20.9776 60.5788C20.9776 59.8352 20.3768 59.2279 19.6412 59.2279Z" fill="#000824"/>
<path d="M13.2723 54.1492H2.39117C1.57586 54.1492 0.919922 53.3685 0.919922 52.3981C0.919922 51.4277 1.57586 50.647 2.39117 50.647H13.2723C14.0876 50.647 14.7436 51.4277 14.7436 52.3981C14.7436 53.3685 14.0876 54.1492 13.2723 54.1492Z" fill="#000824"/>
<path d="M63.3743 54.1492H26.0045C25.1891 54.1492 24.5332 53.3685 24.5332 52.3981C24.5332 51.4277 25.1891 50.647 26.0045 50.647H63.3743C64.1896 50.647 64.8455 51.4277 64.8455 52.3981C64.8455 53.3685 64.1835 54.1492 63.3743 54.1492Z" fill="#000824"/>
</svg>
