<svg width="72" height="73" viewBox="0 0 72 73" fill="none" xmlns="http://www.w3.org/2000/svg">
<path d="M35.9998 12.25C33.3065 12.25 30.6737 13.0487 28.4344 14.545C26.195 16.0413 24.4496 18.168 23.4189 20.6563C22.3882 23.1446 22.1186 25.8826 22.644 28.5241C23.1694 31.1657 24.4664 33.5921 26.3708 35.4965C28.2752 37.401 30.7017 38.6979 33.3432 39.2233C35.9847 39.7488 38.7227 39.4791 41.211 38.4484C43.6993 37.4178 45.8261 35.6724 47.3224 33.433C48.8187 31.1936 49.6173 28.5608 49.6173 25.8675C49.613 22.2572 48.177 18.7961 45.6241 16.2432C43.0713 13.6904 39.6101 12.2543 35.9998 12.25ZM35.9998 36.235C33.9493 36.235 31.9449 35.627 30.24 34.4878C28.535 33.3486 27.2062 31.7294 26.4215 29.835C25.6368 27.9406 25.4315 25.856 25.8315 23.8449C26.2316 21.8338 27.219 19.9865 28.6689 18.5366C30.1188 17.0867 31.9661 16.0992 33.9772 15.6992C35.9883 15.2992 38.0729 15.5045 39.9673 16.2892C41.8617 17.0739 43.4809 18.4027 44.6201 20.1076C45.7593 21.8126 46.3673 23.817 46.3673 25.8675C46.3673 28.6171 45.275 31.2541 43.3308 33.1984C41.3865 35.1427 38.7495 36.235 35.9998 36.235Z" fill="#000824"/>
<path d="M36 0.875C28.9293 0.875 22.0174 2.9717 16.1384 6.89996C10.2593 10.8282 5.67716 16.4116 2.97132 22.9441C0.26549 29.4765 -0.442479 36.6647 0.936942 43.5995C2.31636 50.5343 5.72122 56.9043 10.7209 61.9041C15.7207 66.9038 22.0907 70.3087 29.0255 71.6881C35.9604 73.0675 43.1485 72.3595 49.6809 69.6537C56.2134 66.9479 61.7968 62.3657 65.7251 56.4866C69.6533 50.6076 71.75 43.6957 71.75 36.625C71.75 27.1435 67.9835 18.0504 61.2791 11.3459C54.5747 4.64151 45.4815 0.875 36 0.875ZM20.4975 65.16V56.125C20.4975 53.5391 21.5247 51.0592 23.3532 49.2307C25.1817 47.4022 27.6617 46.375 30.2475 46.375H41.7525C44.3384 46.375 46.8183 47.4022 48.6468 49.2307C50.4753 51.0592 51.5025 53.5391 51.5025 56.125V65.2088C43.7513 70.3438 28.395 70.8313 20.4975 65.16ZM54.7525 63.1288V56.125C54.7525 52.6772 53.3829 49.3706 50.9449 46.9326C48.5069 44.4946 45.2003 43.125 41.7525 43.125H30.2475C26.7997 43.125 23.4931 44.4946 21.0551 46.9326C18.6172 49.3706 17.2475 52.6772 17.2475 56.125V63.1775C11.6118 59.1961 7.38961 53.5243 5.19214 46.9834C2.99468 40.4425 2.93605 33.372 5.02473 26.7955C7.11342 20.2191 11.241 14.4781 16.8099 10.4038C22.3788 6.32946 29.0998 4.13332 36 4.13332C42.9002 4.13332 49.6213 6.32946 55.1901 10.4038C60.759 14.4781 64.8866 20.2191 66.9753 26.7955C69.064 33.372 69.0053 40.4425 66.8079 46.9834C64.6104 53.5243 60.3882 59.1961 54.7525 63.1775V63.1288Z" fill="#000824"/>
</svg>
