<svg width="70" height="70" viewBox="0 0 70 70" fill="none" xmlns="http://www.w3.org/2000/svg">
<path d="M63.5703 34.5898H42.6816C42.4672 34.5898 42.2615 34.6763 42.1099 34.8301C41.9582 34.9839 41.873 35.1926 41.873 35.4102V40.1953C41.873 40.4129 41.9582 40.6215 42.1099 40.7754C42.2615 40.9292 42.4672 41.0156 42.6816 41.0156H63.5703C63.7848 41.0156 63.9904 40.9292 64.1421 40.7754C64.2937 40.6215 64.3789 40.4129 64.3789 40.1953V35.4102C64.3789 35.1926 64.2937 34.9839 64.1421 34.8301C63.9904 34.6763 63.7848 34.5898 63.5703 34.5898ZM62.627 39.375H43.4902V36.2305H62.627V39.375Z" fill="#000824"/>
<path d="M45.453 65.9531C46.0928 65.9531 46.7183 65.7606 47.2503 65.3999C47.7824 65.0393 48.197 64.5267 48.4419 63.927C48.6867 63.3272 48.7508 62.6673 48.626 62.0306C48.5011 61.394 48.193 60.8092 47.7405 60.3502C47.2881 59.8912 46.7116 59.5786 46.084 59.452C45.4565 59.3253 44.806 59.3904 44.2148 59.6388C43.6237 59.8872 43.1184 60.3079 42.7629 60.8477C42.4075 61.3874 42.2177 62.022 42.2178 62.6711C42.2188 63.5413 42.5599 64.3755 43.1664 64.9907C43.7729 65.606 44.5952 65.9521 45.453 65.9531ZM45.453 61.0297C45.773 61.0297 46.0858 61.1259 46.3519 61.3063C46.6179 61.4867 46.8253 61.743 46.9478 62.043C47.0703 62.3429 47.1023 62.6729 47.0399 62.9914C46.9774 63.3098 46.8233 63.6022 46.5971 63.8318C46.3708 64.0614 46.0825 64.2177 45.7686 64.281C45.4547 64.3444 45.1294 64.3119 44.8338 64.1876C44.5381 64.0634 44.2854 63.853 44.1076 63.5831C43.9299 63.3131 43.835 62.9958 43.835 62.6711C43.8354 62.2359 44.0059 61.8186 44.3093 61.5108C44.6126 61.203 45.0239 61.0299 45.453 61.0294V61.0297Z" fill="#000824"/>
<path d="M53.1278 65.9531C53.7676 65.9531 54.3931 65.7606 54.9251 65.3999C55.4572 65.0393 55.8718 64.5267 56.1167 63.927C56.3616 63.3272 56.4256 62.6673 56.3008 62.0306C56.1759 61.394 55.8678 60.8092 55.4153 60.3502C54.9629 59.8912 54.3864 59.5786 53.7588 59.452C53.1313 59.3253 52.4808 59.3904 51.8896 59.6388C51.2985 59.8872 50.7932 60.3079 50.4377 60.8477C50.0823 61.3874 49.8926 62.022 49.8926 62.6711C49.8936 63.5413 50.2348 64.3755 50.8413 64.9907C51.4478 65.606 52.2701 65.9521 53.1278 65.9531ZM53.1278 61.0297C53.4478 61.0297 53.7606 61.1259 54.0267 61.3063C54.2928 61.4867 54.5001 61.743 54.6226 62.043C54.7451 62.3429 54.7771 62.6729 54.7147 62.9914C54.6522 63.3098 54.4981 63.6022 54.2719 63.8318C54.0456 64.0614 53.7573 64.2177 53.4434 64.281C53.1296 64.3444 52.8042 64.3119 52.5086 64.1876C52.2129 64.0634 51.9602 63.853 51.7824 63.5831C51.6047 63.3131 51.5098 62.9958 51.5098 62.6711C51.5102 62.2359 51.6807 61.8186 51.9841 61.5108C52.2874 61.203 52.6987 61.0299 53.1278 61.0294V61.0297Z" fill="#000824"/>
<path d="M60.8026 65.9531C61.4424 65.9531 62.0679 65.7606 62.6 65.3999C63.132 65.0393 63.5466 64.5267 63.7915 63.927C64.0364 63.3272 64.1004 62.6673 63.9756 62.0306C63.8507 61.394 63.5426 60.8092 63.0901 60.3502C62.6377 59.8912 62.0612 59.5786 61.4336 59.452C60.8061 59.3253 60.1556 59.3904 59.5644 59.6388C58.9733 59.8872 58.468 60.3079 58.1125 60.8477C57.7571 61.3874 57.5674 62.022 57.5674 62.6711C57.5684 63.5413 57.9096 64.3755 58.5161 64.9907C59.1226 65.606 59.9449 65.9521 60.8026 65.9531ZM60.8026 61.0297C61.1226 61.0297 61.4354 61.1259 61.7015 61.3063C61.9676 61.4867 62.1749 61.743 62.2974 62.043C62.4199 62.3429 62.4519 62.6729 62.3895 62.9914C62.327 63.3098 62.1729 63.6022 61.9467 63.8318C61.7204 64.0614 61.4321 64.2177 61.1182 64.281C60.8044 64.3444 60.479 64.3119 60.1834 64.1876C59.8877 64.0634 59.635 63.853 59.4573 63.5831C59.2795 63.3131 59.1846 62.9958 59.1846 62.6711C59.1849 62.2359 59.3555 61.8185 59.6588 61.5107C59.9622 61.203 60.3735 61.0298 60.8026 61.0294V61.0297Z" fill="#000824"/>
<path d="M45.453 58.7104C46.0928 58.7104 46.7183 58.5179 47.2503 58.1573C47.7824 57.7966 48.197 57.284 48.4419 56.6843C48.6867 56.0846 48.7508 55.4247 48.626 54.788C48.5011 54.1514 48.193 53.5665 47.7406 53.1075C47.2881 52.6485 46.7117 52.3359 46.0841 52.2093C45.4565 52.0827 44.8061 52.1477 44.2149 52.3961C43.6238 52.6445 43.1185 53.0652 42.763 53.6049C42.4075 54.1446 42.2178 54.7792 42.2178 55.4283C42.2187 56.2985 42.5599 57.1327 43.1664 57.748C43.7729 58.3633 44.5952 58.7094 45.453 58.7104ZM45.453 53.787C45.773 53.787 46.0859 53.8833 46.352 54.0637C46.618 54.2441 46.8254 54.5005 46.9479 54.8005C47.0703 55.1005 47.1023 55.4305 47.0398 55.749C46.9773 56.0674 46.8231 56.3599 46.5968 56.5894C46.3704 56.8189 46.082 56.9752 45.7681 57.0385C45.4542 57.1017 45.1289 57.0691 44.8332 56.9447C44.5376 56.8203 44.2849 56.6098 44.1072 56.3398C43.9296 56.0697 43.8348 55.7523 43.835 55.4276C43.8356 54.9926 44.0063 54.5756 44.3097 54.268C44.613 53.9605 45.0241 53.7875 45.453 53.787Z" fill="#000824"/>
<path d="M53.1278 58.7104C53.7676 58.7104 54.3931 58.5179 54.9251 58.1573C55.4572 57.7966 55.8718 57.284 56.1167 56.6843C56.3615 56.0846 56.4256 55.4247 56.3008 54.788C56.176 54.1514 55.8678 53.5665 55.4154 53.1075C54.9629 52.6485 54.3865 52.3359 53.7589 52.2093C53.1314 52.0827 52.4809 52.1477 51.8897 52.3961C51.2986 52.6445 50.7933 53.0652 50.4378 53.6049C50.0823 54.1446 49.8926 54.7792 49.8926 55.4283C49.8935 56.2985 50.2347 57.1327 50.8412 57.748C51.4477 58.3633 52.27 58.7094 53.1278 58.7104ZM53.1278 53.787C53.4478 53.787 53.7607 53.8833 54.0268 54.0637C54.2929 54.2441 54.5002 54.5005 54.6227 54.8005C54.7451 55.1005 54.7771 55.4305 54.7146 55.749C54.6521 56.0674 54.4979 56.3599 54.2716 56.5894C54.0452 56.8189 53.7568 56.9752 53.4429 57.0385C53.129 57.1017 52.8037 57.0691 52.508 56.9447C52.2124 56.8203 51.9597 56.6098 51.7821 56.3398C51.6044 56.0697 51.5096 55.7523 51.5098 55.4276C51.5104 54.9926 51.6812 54.5756 51.9845 54.268C52.2878 53.9605 52.6989 53.7875 53.1278 53.787Z" fill="#000824"/>
<path d="M60.8026 58.7104C61.4424 58.7104 62.0679 58.5179 62.5999 58.1573C63.132 57.7966 63.5466 57.284 63.7915 56.6843C64.0363 56.0846 64.1004 55.4247 63.9756 54.788C63.8508 54.1514 63.5426 53.5665 63.0902 53.1075C62.6377 52.6485 62.0613 52.3359 61.4337 52.2093C60.8062 52.0827 60.1557 52.1477 59.5645 52.3961C58.9734 52.6445 58.4681 53.0652 58.1126 53.6049C57.7571 54.1446 57.5674 54.7792 57.5674 55.4283C57.5683 56.2985 57.9095 57.1327 58.516 57.748C59.1225 58.3633 59.9448 58.7094 60.8026 58.7104ZM60.8026 53.787C61.1226 53.787 61.4355 53.8833 61.7016 54.0637C61.9677 54.2441 62.175 54.5005 62.2975 54.8005C62.4199 55.1005 62.4519 55.4305 62.3894 55.749C62.3269 56.0674 62.1727 56.3599 61.9464 56.5894C61.72 56.8189 61.4316 56.9752 61.1177 57.0385C60.8038 57.1017 60.4785 57.0691 60.1828 56.9447C59.8872 56.8203 59.6345 56.6098 59.4569 56.3398C59.2792 56.0697 59.1844 55.7523 59.1846 55.4276C59.1852 54.9926 59.3559 54.5755 59.6592 54.268C59.9625 53.9604 60.3737 53.7874 60.8026 53.787Z" fill="#000824"/>
<path d="M45.453 51.4682C46.0928 51.4682 46.7183 51.2757 47.2503 50.9151C47.7824 50.5544 48.197 50.0418 48.4419 49.4421C48.6867 48.8424 48.7508 48.1825 48.626 47.5458C48.5011 46.9092 48.193 46.3244 47.7406 45.8653C47.2881 45.4063 46.7117 45.0938 46.0841 44.9671C45.4565 44.8405 44.8061 44.9055 44.2149 45.1539C43.6238 45.4023 43.1185 45.823 42.763 46.3627C42.4075 46.9024 42.2178 47.537 42.2178 48.1861C42.2187 49.0563 42.5599 49.8905 43.1664 50.5058C43.7729 51.1211 44.5952 51.4672 45.453 51.4682ZM45.453 46.5447C45.773 46.5447 46.0858 46.6409 46.3519 46.8213C46.6179 47.0017 46.8253 47.258 46.9478 47.558C47.0703 47.8579 47.1023 48.1879 47.0399 48.5064C46.9774 48.8248 46.8233 49.1172 46.5971 49.3468C46.3708 49.5764 46.0825 49.7327 45.7686 49.796C45.4547 49.8594 45.1294 49.8269 44.8338 49.7026C44.5381 49.5784 44.2854 49.368 44.1076 49.0981C43.9299 48.8281 43.835 48.5108 43.835 48.1861C43.8355 47.7509 44.0061 47.3337 44.3094 47.026C44.6127 46.7183 45.024 46.5452 45.453 46.5447Z" fill="#000824"/>
<path d="M53.1278 51.4682C53.7676 51.4682 54.3931 51.2757 54.9251 50.9151C55.4572 50.5544 55.8718 50.0418 56.1167 49.4421C56.3615 48.8424 56.4256 48.1825 56.3008 47.5458C56.176 46.9092 55.8678 46.3244 55.4154 45.8653C54.9629 45.4063 54.3865 45.0938 53.7589 44.9671C53.1314 44.8405 52.4809 44.9055 51.8897 45.1539C51.2986 45.4023 50.7933 45.823 50.4378 46.3627C50.0823 46.9024 49.8926 47.537 49.8926 48.1861C49.8935 49.0563 50.2347 49.8905 50.8412 50.5058C51.4477 51.1211 52.27 51.4672 53.1278 51.4682ZM53.1278 46.5447C53.4478 46.5447 53.7606 46.6409 54.0267 46.8213C54.2928 47.0017 54.5001 47.258 54.6226 47.558C54.7451 47.8579 54.7771 48.1879 54.7147 48.5064C54.6522 48.8248 54.4981 49.1172 54.2719 49.3468C54.0456 49.5764 53.7573 49.7327 53.4434 49.796C53.1296 49.8594 52.8042 49.8269 52.5086 49.7026C52.2129 49.5784 51.9602 49.368 51.7824 49.0981C51.6047 48.8281 51.5098 48.5108 51.5098 48.1861C51.5103 47.7509 51.6809 47.3337 51.9842 47.026C52.2875 46.7183 52.6988 46.5452 53.1278 46.5447Z" fill="#000824"/>
<path d="M60.8026 51.4682C61.4424 51.4682 62.0679 51.2757 62.5999 50.9151C63.132 50.5544 63.5466 50.0418 63.7915 49.4421C64.0363 48.8424 64.1004 48.1825 63.9756 47.5458C63.8508 46.9092 63.5426 46.3244 63.0902 45.8653C62.6377 45.4063 62.0613 45.0938 61.4337 44.9671C60.8062 44.8405 60.1557 44.9055 59.5645 45.1539C58.9734 45.4023 58.4681 45.823 58.1126 46.3627C57.7571 46.9024 57.5674 47.537 57.5674 48.1861C57.5683 49.0563 57.9095 49.8905 58.516 50.5058C59.1225 51.1211 59.9448 51.4672 60.8026 51.4682ZM60.8026 46.5447C61.1226 46.5447 61.4354 46.6409 61.7015 46.8213C61.9676 47.0017 62.1749 47.258 62.2974 47.558C62.4199 47.8579 62.4519 48.1879 62.3895 48.5064C62.327 48.8248 62.1729 49.1172 61.9467 49.3468C61.7204 49.5764 61.4321 49.7327 61.1182 49.796C60.8044 49.8594 60.479 49.8269 60.1834 49.7026C59.8877 49.5784 59.635 49.368 59.4573 49.0981C59.2795 48.8281 59.1846 48.5108 59.1846 48.1861C59.185 47.7509 59.3556 47.3337 59.659 47.026C59.9623 46.7182 60.3736 46.5451 60.8026 46.5447Z" fill="#000824"/>
<path d="M30.4248 42.2461H22.002C21.7875 42.2461 21.5818 42.3325 21.4302 42.4864C21.2786 42.6402 21.1934 42.8488 21.1934 43.0664C21.1934 43.284 21.2786 43.4926 21.4302 43.6465C21.5818 43.8003 21.7875 43.8867 22.002 43.8867H30.4248C30.6393 43.8867 30.8449 43.8003 30.9966 43.6465C31.1482 43.4926 31.2334 43.284 31.2334 43.0664C31.2334 42.8488 31.1482 42.6402 30.9966 42.4864C30.8449 42.3325 30.6393 42.2461 30.4248 42.2461Z" fill="#000824"/>
<path d="M18.1523 43.8867H18.9744C19.1889 43.8867 19.3945 43.8003 19.5462 43.6465C19.6978 43.4926 19.783 43.284 19.783 43.0664C19.783 42.8488 19.6978 42.6402 19.5462 42.4864C19.3945 42.3325 19.1889 42.2461 18.9744 42.2461H18.1523C17.9379 42.2461 17.7322 42.3325 17.5806 42.4864C17.4289 42.6402 17.3438 42.8488 17.3438 43.0664C17.3438 43.284 17.4289 43.4926 17.5806 43.6465C17.7322 43.8003 17.9379 43.8867 18.1523 43.8867Z" fill="#000824"/>
<path d="M29.2247 49.2188H24.8262C24.6117 49.2188 24.4061 49.3052 24.2544 49.459C24.1028 49.6129 24.0176 49.8215 24.0176 50.0391C24.0176 50.2566 24.1028 50.4653 24.2544 50.6191C24.4061 50.773 24.6117 50.8594 24.8262 50.8594H29.2247C29.4391 50.8594 29.6448 50.773 29.7964 50.6191C29.9481 50.4653 30.0332 50.2566 30.0332 50.0391C30.0332 49.8215 29.9481 49.6129 29.7964 49.459C29.6448 49.3052 29.4391 49.2188 29.2247 49.2188Z" fill="#000824"/>
<path d="M21.6672 49.2188H18.1523C17.9379 49.2188 17.7322 49.3052 17.5806 49.459C17.4289 49.6129 17.3438 49.8215 17.3438 50.0391C17.3438 50.2566 17.4289 50.4653 17.5806 50.6191C17.7322 50.773 17.9379 50.8594 18.1523 50.8594H21.6672C21.8816 50.8594 22.0873 50.773 22.2389 50.6191C22.3906 50.4653 22.4758 50.2566 22.4758 50.0391C22.4758 49.8215 22.3906 49.6129 22.2389 49.459C22.0873 49.3052 21.8816 49.2188 21.6672 49.2188Z" fill="#000824"/>
<path d="M14.9199 6.39917C14.7055 6.39917 14.4998 6.4856 14.3482 6.63943C14.1965 6.79327 14.1113 7.00192 14.1113 7.21948V7.54939C14.1113 7.76695 14.1965 7.97559 14.3482 8.12943C14.4998 8.28327 14.7055 8.3697 14.9199 8.3697C15.1344 8.3697 15.34 8.28327 15.4917 8.12943C15.6433 7.97559 15.7285 7.76695 15.7285 7.54939V7.21948C15.7285 7.00192 15.6433 6.79327 15.4917 6.63943C15.34 6.4856 15.1344 6.39917 14.9199 6.39917Z" fill="#000824"/>
<path d="M14.9199 9.93237C14.7055 9.93237 14.4998 10.0188 14.3482 10.1726C14.1965 10.3265 14.1113 10.5351 14.1113 10.7527V21.6188C14.1113 21.8364 14.1965 22.045 14.3482 22.1989C14.4998 22.3527 14.7055 22.4391 14.9199 22.4391C15.1344 22.4391 15.34 22.3527 15.4917 22.1989C15.6433 22.045 15.7285 21.8364 15.7285 21.6188V10.7527C15.7285 10.5351 15.6433 10.3265 15.4917 10.1726C15.34 10.0188 15.1344 9.93237 14.9199 9.93237Z" fill="#000824"/>
<path d="M31.5771 8.8667C29.2173 8.8667 26.9104 9.57662 24.9483 10.9067C22.9861 12.2367 21.4568 14.1272 20.5538 16.339C19.6507 18.5508 19.4144 20.9847 19.8748 23.3327C20.3352 25.6808 21.4715 27.8376 23.1402 29.5304C24.8089 31.2233 26.9349 32.3761 29.2494 32.8432C31.5639 33.3102 33.9629 33.0705 36.1432 32.1544C38.3234 31.2382 40.1868 29.6867 41.4979 27.6961C42.809 25.7056 43.5087 23.3653 43.5087 20.9712C43.5052 17.762 42.2469 14.6853 40.0101 12.416C37.7733 10.1468 34.7405 8.87032 31.5771 8.8667ZM41.8732 20.371H33.3122L39.4147 14.1801C40.8815 15.9143 41.7454 18.0897 41.8732 20.371ZM31.5771 10.5073C34.0329 10.5058 36.4079 11.3973 38.2712 13.0201L31.581 19.8072L26.316 11.9765C27.9066 11.0135 29.7248 10.5058 31.5771 10.5073ZM31.5771 31.435C29.4555 31.4361 27.3851 30.773 25.6486 29.5363C23.9121 28.2996 22.594 26.5496 21.8741 24.5248C21.1542 22.5001 21.0676 20.2994 21.6261 18.2229C22.1846 16.1464 23.361 14.2952 24.9948 12.9221L30.8647 21.6536C30.9389 21.7639 31.0386 21.8542 31.155 21.9167C31.2714 21.9791 31.4011 22.0117 31.5328 22.0117H41.8403C41.5829 24.5926 40.3909 26.9849 38.495 28.7256C36.5991 30.4664 34.1342 31.4318 31.5771 31.435Z" fill="#000824"/>
<path d="M63.9219 31.1719H53.0586V13.4995C53.0627 12.9001 52.834 12.3232 52.422 11.8936L42.3117 1.3773C42.1014 1.15856 41.8502 0.984543 41.5728 0.865432C41.2954 0.746321 40.9974 0.684504 40.6961 0.683594H12.4149C12.1204 0.685372 11.8292 0.746438 11.5581 0.86325C11.287 0.980061 11.0415 1.1503 10.8358 1.36409C10.63 1.57788 10.4682 1.83097 10.3596 2.10869C10.251 2.38641 10.1978 2.68324 10.2031 2.98197V5.19531H8.052C7.75387 5.18907 7.45748 5.24277 7.17992 5.35331C6.90236 5.46386 6.64912 5.62906 6.43481 5.83939C6.22246 6.04552 6.05297 6.29273 5.93636 6.56641C5.81975 6.84009 5.75837 7.13471 5.75586 7.43285V8.75H4.1252C3.82824 8.74429 3.53313 8.79856 3.25704 8.90965C2.98095 9.02074 2.7294 9.18644 2.51704 9.39709C2.30593 9.60426 2.13793 9.85227 2.02295 10.1265C1.90798 10.4007 1.84837 10.6954 1.84766 10.9934V65.4864C1.84983 66.1002 2.09021 66.6885 2.51678 67.1238C2.94335 67.5592 3.52176 67.8066 4.12681 67.8125H38.907C39.2909 68.2834 39.7727 68.6625 40.3179 68.9224C40.863 69.1824 41.4581 69.317 42.0605 69.3164H63.9219C65.0081 69.3164 66.0499 68.8786 66.8179 68.0994C67.586 67.3202 68.0175 66.2634 68.0176 65.1614V35.3269C68.0175 34.2249 67.586 33.1681 66.8179 32.3889C66.0499 31.6097 65.0081 31.1719 63.9219 31.1719ZM41.873 3.26881L50.3758 12.168H45.9666C45.4265 12.1636 44.8927 12.051 44.3957 11.8365C43.8988 11.6221 43.4486 11.31 43.071 10.9184C42.3002 10.1282 41.8695 9.06035 41.873 7.94869V3.26881ZM7.37305 7.43189C7.3762 7.3491 7.39615 7.26786 7.43165 7.19324C7.46715 7.11862 7.51744 7.05223 7.57937 6.99822C7.71012 6.8828 7.88053 6.82447 8.05348 6.83594H10.2031V57.6231C10.1981 57.9201 10.2518 58.215 10.3611 58.4906C10.4704 58.7661 10.633 59.0166 10.8393 59.2273C11.0457 59.4379 11.2916 59.6045 11.5625 59.7171C11.8334 59.8297 12.1238 59.886 12.4165 59.8828H37.9648V62.4805H8.05402C7.87424 62.4711 7.70448 62.3937 7.57836 62.2633C7.45224 62.133 7.37896 61.9594 7.37305 61.7769V7.43189ZM4.12722 66.1719C3.95157 66.1671 3.78468 66.093 3.66201 65.9654C3.53755 65.8375 3.46687 65.6657 3.46484 65.486V10.9922C3.46622 10.9096 3.48443 10.8281 3.51831 10.753C3.55219 10.6778 3.60102 10.6106 3.66174 10.5555C3.7246 10.4981 3.7981 10.454 3.87794 10.4257C3.95779 10.3973 4.04239 10.3854 4.12681 10.3906H5.75586V61.7772C5.76228 62.3946 6.00601 62.985 6.43516 63.4228C6.8643 63.8606 7.44496 64.1112 8.05348 64.1211H37.9648V65.1614C37.9648 65.502 38.006 65.8414 38.0875 66.1719H4.12722ZM37.9648 35.3269V42.6226C37.8918 42.5072 37.7912 42.4122 37.6725 42.3464C37.5538 42.2806 37.4208 42.2461 37.2855 42.2461H34.2597C34.0453 42.2461 33.8396 42.3325 33.688 42.4864C33.5363 42.6402 33.4511 42.8488 33.4511 43.0664C33.4511 43.284 33.5363 43.4926 33.688 43.6465C33.8396 43.8003 34.0453 43.8867 34.2597 43.8867H37.2855C37.4208 43.8867 37.5538 43.8522 37.6725 43.7864C37.7912 43.7206 37.8918 43.6257 37.9648 43.5102V49.2188H32.3338C32.1193 49.2188 31.9137 49.3052 31.762 49.459C31.6104 49.6129 31.5252 49.8215 31.5252 50.0391C31.5252 50.2566 31.6104 50.4653 31.762 50.6191C31.9137 50.7729 32.1193 50.8594 32.3338 50.8594H37.9648V58.2422H12.4169C12.3369 58.2458 12.257 58.2322 12.1825 58.2024C12.108 58.1725 12.0406 58.1271 11.9846 58.069C11.9281 58.0103 11.8842 57.9404 11.8559 57.8635C11.8276 57.7867 11.8155 57.7047 11.8203 57.6229V2.98047C11.8149 2.89719 11.8263 2.81366 11.8537 2.73497C11.8811 2.65628 11.924 2.58405 11.9797 2.52268C12.0355 2.46131 12.103 2.41207 12.178 2.37796C12.2531 2.34384 12.3343 2.32556 12.4165 2.32422H40.2559V7.94828C40.2528 9.4918 40.8512 10.974 41.9208 12.0717C42.9904 13.1695 44.4443 13.7938 45.9657 13.8086H51.4414V31.1719H42.0605C40.9743 31.1719 39.9326 31.6097 39.1645 32.3889C38.3964 33.1681 37.9649 34.2249 37.9648 35.3269ZM66.5352 65.1614C66.5307 65.8297 66.266 66.4691 65.7986 66.9402C65.3313 67.4112 64.6993 67.6757 64.0405 67.6758H42.1256C40.7589 67.6758 39.582 66.5479 39.582 65.1614V43.8867H66.5352V65.1614ZM66.5352 42.2461H39.582V35.3298C39.582 33.9433 40.7589 32.8125 42.1256 32.8125H64.0405C64.6996 32.8133 65.3316 33.0783 65.7989 33.5498C66.2662 34.0214 66.5309 34.6611 66.5352 35.3298V42.2461Z" fill="#000824"/>
</svg>
