<svg width="70" height="70" viewBox="0 0 70 70" fill="none" xmlns="http://www.w3.org/2000/svg">
<path d="M64.8033 9.65149H56.4245V6.89391C56.4245 6.25755 56.0002 5.8333 55.3639 5.8333H50.0608V3.71209C50.0608 2.01512 48.682 0.530273 46.879 0.530273H37.7578C36.0608 0.530273 34.576 1.90906 34.576 3.71209V5.8333H29.273C28.6366 5.8333 28.2123 6.25755 28.2123 6.89391V9.65149H19.8336C17.7123 9.65149 15.9093 11.4545 15.9093 13.5757V35.6363H14.5305C14.0002 35.6363 13.576 35.9545 13.4699 36.4848L13.0457 38.7121C12.1972 38.9242 11.4548 39.2424 10.6063 39.6666L8.80325 38.3939C8.37901 38.0757 7.84871 38.1818 7.42447 38.5L4.24265 41.5757C3.92446 41.8939 3.8184 42.5303 4.13659 42.9545L5.40931 44.7575C4.98507 45.5 4.66689 46.3485 4.34871 47.0909L2.12143 47.5151C1.59113 47.6212 1.27295 48.0454 1.27295 48.5757V53.0303C1.27295 53.5606 1.59113 53.9848 2.12143 54.0909L4.34871 54.5151C4.56083 55.3636 4.87901 56.106 5.30325 56.9545L4.03053 58.7575C3.71234 59.1818 3.8184 59.7121 4.13659 60.1363L7.21234 63.3181C7.53053 63.6363 8.16689 63.7424 8.59113 63.4242L10.3942 62.1515C11.1366 62.5757 11.9851 62.8939 12.7275 63.106L13.1517 65.3333C13.2578 65.8636 13.682 66.1818 14.2123 66.1818H15.9093C16.2275 68.0909 17.8184 69.4697 19.7275 69.4697H64.6972C66.8184 69.4697 68.6214 67.6666 68.6214 65.5454V13.5757C68.7275 11.4545 66.9245 9.65149 64.8033 9.65149ZM30.3336 7.95452H35.6366C36.273 7.95452 36.6972 7.53027 36.6972 6.89391V3.71209C36.6972 3.18179 37.1214 2.65149 37.7578 2.65149H46.879C47.4093 2.65149 47.9396 3.07573 47.9396 3.71209V6.89391C47.9396 7.53027 48.3639 7.95452 49.0002 7.95452H54.3033V13.4697H30.3336V7.95452ZM14.8487 62.0454C14.7426 61.6212 14.4245 61.303 14.0002 61.1969C12.9396 60.9848 11.879 60.5606 10.9245 59.9242C10.6063 59.7121 10.076 59.7121 9.7578 59.9242L8.06083 61.0909L6.2578 59.1818L7.42447 57.5909C7.63659 57.2727 7.63659 56.7424 7.42447 56.4242C6.7881 55.4697 6.46992 54.4091 6.15174 53.3484C6.04568 52.9242 5.7275 52.606 5.30325 52.5L3.2881 52.1818V49.5303L5.30325 49.2121C5.7275 49.106 6.04568 48.7878 6.15174 48.4697C6.36386 47.4091 6.89416 46.3485 7.42447 45.3939C7.63659 45.0757 7.63659 44.5454 7.42447 44.2272L6.2578 42.5303L8.16689 40.7272L9.86386 41.8939C10.182 42.106 10.6063 42.106 11.0305 41.8939C11.9851 41.3636 13.0457 40.9394 14.1063 40.6212C14.5305 40.5151 14.8487 40.1969 14.9548 39.7727L15.273 37.7575H17.9245L18.2426 39.7727C18.3487 40.1969 18.6669 40.5151 19.0911 40.6212C20.1517 40.8333 21.2123 41.2575 22.1669 41.8939C22.4851 42.106 23.0154 42.106 23.3336 41.8939L25.0305 40.7272L26.9396 42.6363L25.773 44.3333C25.5608 44.6515 25.5608 45.1818 25.773 45.5C26.4093 46.4545 26.7275 47.5151 27.0457 48.5757C27.1517 49 27.4699 49.3181 27.8942 49.4242L29.9093 49.8485V52.5L27.8942 52.8181C27.4699 52.9242 27.1517 53.2424 27.0457 53.6666C26.8336 54.7272 26.4093 55.7878 25.773 56.7424C25.5608 57.0606 25.5608 57.5909 25.773 57.9091L26.9396 59.606L25.0305 61.5151L23.4396 60.3485C23.1214 60.1363 22.5911 60.1363 22.273 60.3485C21.3184 60.8788 20.2578 61.303 19.1972 61.6212C18.773 61.7272 18.4548 62.0454 18.3487 62.4697L18.0305 64.4848H15.379L14.8487 62.0454ZM66.6063 65.5454C66.6063 66.5 65.7578 67.3484 64.8033 67.3484H19.8336C19.0911 67.3484 18.3487 66.8182 18.1366 66.1818H18.6669C19.1972 66.1818 19.6214 65.8636 19.7275 65.3333L20.1517 63.106C21.0002 62.8939 21.7426 62.5757 22.5911 62.1515L24.3942 63.4242C24.8184 63.7424 25.3487 63.6363 25.773 63.3181L28.9548 60.2424C29.273 59.9242 29.379 59.2878 29.0608 58.8636L27.7881 57.0606C28.2123 56.3181 28.5305 55.4697 28.7427 54.7272L30.9699 54.4091C31.5002 54.303 31.8184 53.8788 31.8184 53.3484V48.8939C31.8184 48.3636 31.5002 47.9394 30.9699 47.8333L28.7427 47.4091C28.5305 46.5606 28.2123 45.8181 27.7881 44.9697L29.0608 43.1666C29.379 42.7424 29.273 42.2121 28.9548 41.7878L25.879 38.606C25.5608 38.2878 24.9245 38.1818 24.5002 38.5L22.6972 39.7727C21.9548 39.3485 21.1063 39.0303 20.3639 38.8181L19.9396 36.5909C19.8336 36.0606 19.4093 35.7424 18.879 35.7424H18.0305V13.5757C18.0305 12.6212 18.879 11.7727 19.8336 11.7727H28.2123V14.5303C28.2123 15.1666 28.6366 15.5909 29.273 15.5909H55.3639C56.0002 15.5909 56.4245 15.1666 56.4245 14.5303V11.7727H64.8033C65.7578 11.7727 66.6063 12.6212 66.6063 13.5757V65.5454Z" fill="#000824"/>
<path d="M24.1819 50.9091C24.1819 46.6666 20.788 43.2727 16.5455 43.2727C12.3031 43.2727 8.90918 46.6666 8.90918 50.9091C8.90918 55.1515 12.3031 58.5454 16.5455 58.5454C20.788 58.5454 24.1819 55.1515 24.1819 50.9091ZM16.5455 56.4242C13.4698 56.4242 11.0304 53.9848 11.0304 50.9091C11.0304 47.8333 13.4698 45.3939 16.5455 45.3939C19.6213 45.3939 22.0607 47.8333 22.0607 50.9091C22.0607 53.9848 19.6213 56.4242 16.5455 56.4242Z" fill="#000824"/>
<path d="M24.6065 22.6969H59.9247C60.5611 22.6969 60.9853 22.2727 60.9853 21.6363C60.9853 20.9999 60.5611 20.5757 59.9247 20.5757H24.6065C23.9701 20.5757 23.5459 20.9999 23.5459 21.6363C23.5459 22.2727 24.0762 22.6969 24.6065 22.6969Z" fill="#000824"/>
<path d="M24.6065 29.3788H59.9247C60.5611 29.3788 60.9853 28.9545 60.9853 28.3182C60.9853 27.6818 60.5611 27.2576 59.9247 27.2576H24.6065C23.9701 27.2576 23.5459 27.6818 23.5459 28.3182C23.5459 28.9545 24.0762 29.3788 24.6065 29.3788Z" fill="#000824"/>
<path d="M60.9853 35.0001C60.9853 34.3637 60.5611 33.9395 59.9247 33.9395H24.6065C23.9701 33.9395 23.5459 34.3637 23.5459 35.0001C23.5459 35.6364 23.9701 36.0607 24.6065 36.0607H59.9247C60.5611 36.0607 60.9853 35.6364 60.9853 35.0001Z" fill="#000824"/>
<path d="M40.6216 49.8484H35.2125C34.5761 49.8484 34.1519 50.2726 34.1519 50.909V62.9999C34.1519 63.6363 34.5761 64.0605 35.2125 64.0605H40.6216C41.2579 64.0605 41.6822 63.6363 41.6822 62.9999V50.909C41.6822 50.2726 41.2579 49.8484 40.6216 49.8484ZM39.5609 61.9393H36.2731V51.9696H39.5609V61.9393Z" fill="#000824"/>
<path d="M50.9091 46.4546H45.5001C44.8637 46.4546 44.4395 46.8788 44.4395 47.5152V63C44.4395 63.6364 44.8637 64.0607 45.5001 64.0607H50.9091C51.5455 64.0607 51.9698 63.6364 51.9698 63V47.5152C51.9698 46.8788 51.5455 46.4546 50.9091 46.4546ZM49.8485 61.9394H46.5607V48.5758H49.8485V61.9394Z" fill="#000824"/>
<path d="M61.1972 43.5908H55.7881C55.1518 43.5908 54.7275 44.0151 54.7275 44.6514V62.9999C54.7275 63.6363 55.1518 64.0605 55.7881 64.0605H61.1972C61.8336 64.0605 62.2578 63.6363 62.2578 62.9999V44.6514C62.2578 44.0151 61.7275 43.5908 61.1972 43.5908ZM60.1366 61.9393H56.8488V45.712H60.1366V61.9393Z" fill="#000824"/>
</svg>
